<svg width="35" height="34" viewBox="0 0 35 34" fill="none" xmlns="http://www.w3.org/2000/svg">
<path d="M31.632 5.61069C31.4298 5.4104 31.1627 5.30407 30.8771 5.30469C30.301 5.31149 29.8318 5.78564 29.8318 6.36178V13.3893C29.8318 14.4816 29.5338 15.5579 28.9701 16.5018C28.9552 16.5265 28.9391 16.5488 28.9212 16.5698C28.9138 16.5884 28.9045 16.6063 28.8946 16.6242C28.8885 16.6353 28.8817 16.6452 28.8761 16.6545C28.6777 16.9648 28.4514 17.2579 28.2041 17.5268L24.3121 21.7409C24.2144 21.846 24.0815 21.8998 23.9486 21.8998C23.8286 21.8998 23.7081 21.8565 23.6129 21.7681C23.4126 21.5833 23.4002 21.2705 23.5851 21.0696L27.4771 16.8554C27.6787 16.6372 27.8635 16.3986 28.0267 16.1464C28.0354 16.1315 28.0446 16.1167 28.0551 16.1019H28.0558C28.0663 16.0864 28.0768 16.0722 28.0891 16.0586C28.0953 16.0431 28.1021 16.0283 28.1102 16.0135C28.3111 15.6419 28.24 15.1913 27.9334 14.8921C27.5414 14.5107 26.9047 14.5088 26.5115 14.8884C26.4194 14.9829 24.9061 16.5395 23.6277 17.8538C22.6733 18.8355 21.8498 19.6824 21.8467 19.6855C20.2716 21.3137 19.4031 23.5522 19.4031 25.9866V29.1164H25.9719C26.0658 27.4993 26.7075 25.9062 27.7287 24.7879L30.4351 21.8256C31.4094 20.7592 31.946 19.3764 31.946 17.9323V6.36178C31.946 6.07742 31.8347 5.81036 31.632 5.61069Z" fill="white"/>
<path d="M16.6699 30.7482C16.6501 30.692 16.6409 30.6314 16.6433 30.5696V30.5689C16.5556 30.2543 16.2663 30.0225 15.9238 30.0225H6.72894C6.31723 30.0225 5.98218 30.3575 5.98218 30.7692V31.516H16.6705V30.7692C16.6705 30.7624 16.6705 30.7556 16.6699 30.7488V30.7482Z" fill="white"/>
<path d="M27.4901 30.1055H18.3509C18.0307 30.1055 17.7562 30.2996 17.6499 30.5883V30.5889C17.6567 30.6482 17.6598 30.7076 17.6598 30.7688V31.5891H28.2369V30.8238C28.2369 30.4214 27.9086 30.1055 27.4901 30.1055Z" fill="white"/>
<path d="M8.24236 29.033H14.8717V25.9866C14.8717 23.635 13.9593 21.3966 12.3032 19.6836C12.3007 19.6811 12.2086 19.5853 10.1637 17.4514C9.00952 16.2465 7.80036 14.9854 7.70639 14.8871C7.31323 14.5094 6.67712 14.5107 6.28581 14.8927C5.97919 15.1913 5.9081 15.6419 6.10901 16.0135C6.11705 16.0283 6.12385 16.0431 6.13003 16.0586C6.14239 16.0722 6.1529 16.0864 6.16341 16.1019H6.16403C6.17454 16.1167 6.18381 16.1315 6.19247 16.1464C6.35567 16.3986 6.5405 16.6372 6.74203 16.8554L10.6341 21.0696C10.8189 21.2705 10.8066 21.5833 10.6063 21.7681C10.5111 21.8565 10.3905 21.8998 10.2706 21.8998C10.1377 21.8998 10.0048 21.846 9.90712 21.7409L6.01567 17.5268C5.76778 17.2579 5.54152 16.9649 5.34308 16.6545C5.3369 16.6453 5.33072 16.6354 5.32454 16.6242C5.31465 16.6063 5.30538 16.5884 5.29796 16.5698C5.28003 16.5488 5.26396 16.5259 5.24912 16.5018C4.68534 15.5579 4.38738 14.4816 4.38738 13.3893V6.3618C4.38738 5.78566 3.91818 5.31151 3.34141 5.30471C3.05767 5.30286 2.78938 5.41042 2.58723 5.61071C2.38447 5.81038 2.27319 6.07744 2.27319 6.3618V17.9323C2.27319 19.3764 2.80978 20.7593 3.78403 21.8256L6.49043 24.788C7.49436 25.8871 8.13108 27.4443 8.24236 29.033Z" fill="white"/>
<path d="M13.9359 7.91271L14.9367 6.40125C15.0307 6.25969 15.1889 6.17438 15.3596 6.17994C15.5296 6.18365 15.6853 6.27391 15.7731 6.4198L17.1282 8.67431L18.979 6.36787C19.0674 6.25784 19.1979 6.19107 19.3382 6.18365C19.4779 6.17685 19.6157 6.22878 19.7153 6.32893L21.2916 7.91271H23.0003C23.9307 6.53169 23.7594 4.6518 22.5676 3.45995C21.3256 2.21802 19.3376 2.08449 17.9442 3.14962C17.7668 3.285 17.5207 3.285 17.3433 3.14962C16.7134 2.66805 15.9623 2.43191 15.2131 2.43191C14.3049 2.43191 13.4005 2.77933 12.7199 3.45995C11.5281 4.6518 11.3568 6.53169 12.2872 7.91271H13.9359Z" fill="white"/>
<path d="M22.1051 8.90161H21.0857C20.954 8.90161 20.8279 8.84906 20.7352 8.75571L19.4043 7.41797L17.4557 9.84619C17.3618 9.96364 17.2196 10.031 17.07 10.031C17.0589 10.031 17.0477 10.031 17.0366 10.0304C16.8753 10.0193 16.7294 9.93026 16.6459 9.79179L15.3286 7.60033L14.614 8.6803C14.5225 8.81815 14.3673 8.90161 14.2016 8.90161H13.1816L17.588 13.3074C17.606 13.3253 17.6245 13.3439 17.6437 13.3618C17.6628 13.3439 17.6814 13.3253 17.6993 13.3074L22.1051 8.90161Z" fill="white"/>
<path d="M24.5278 8.90218C24.8011 8.90218 25.0224 8.68087 25.0224 8.40763C25.0224 8.1344 24.8011 7.91309 24.5278 7.91309H24.1378C24.0086 8.18138 23.8503 8.44039 23.6636 8.68458C23.6061 8.75938 23.5474 8.83232 23.4868 8.90218H24.5278Z" fill="white"/>
<path d="M10.186 8.90218H11.8006C11.7401 8.83232 11.6813 8.75938 11.6238 8.68458C11.4372 8.44039 11.2789 8.18138 11.1497 7.91309H10.186C9.91272 7.91309 9.69141 8.1344 9.69141 8.40763C9.69141 8.68087 9.91272 8.90218 10.186 8.90218Z" fill="white"/>
</svg>
