<svg width="262" height="181" viewBox="0 0 262 181" fill="none" xmlns="http://www.w3.org/2000/svg">
<path d="M260.024 180.883L257.3 179.653C260.055 171.907 259.323 162.724 255.475 154.479C251.626 146.233 245.21 140.436 238.039 138.646C234.888 137.805 231.571 137.72 228.361 137.537C222.715 137.269 216.788 136.855 211.719 133.445C205 128.829 202.128 120.596 199.247 112.472C197.527 107.71 195.827 102.729 193.362 98.6489C185.174 85.4222 169.225 82.3045 157.067 83.7662C148.264 84.8746 139.583 87.883 131.104 90.8062C126.362 92.4261 121.513 94.1435 116.694 95.532C99.4407 100.343 85.2868 99.0035 74.8124 91.5864C63.2376 83.3654 56.9587 68.4944 52.5139 54.9632C51.8995 53.1119 51.2851 51.2607 50.6607 49.519C46.8403 37.7294 42.7696 25.4648 35.3941 16.2208C27.228 5.99016 12.7279 -0.160253 2.38244 7.18405L0.774135 4.43153C12.8921 -4.13074 28.6762 2.95748 37.4594 13.931C45.1818 23.6622 49.3293 36.1582 53.3132 48.3011C53.9277 50.1523 54.5421 52.0036 55.0698 53.733C59.4676 66.704 65.3128 80.966 76.2506 88.6633C86.088 95.5567 99.3719 96.7867 115.919 92.2192C120.728 90.9403 125.48 89.2108 130.223 87.5908C138.807 84.5702 147.595 81.4644 156.688 80.3925C169.737 78.8212 186.825 82.3043 195.697 96.615C198.433 100.951 200.209 106.164 201.909 111.145C204.617 119.025 207.268 126.454 213.167 130.413C217.589 133.409 222.839 133.737 228.389 133.993C231.793 134.2 235.196 134.407 238.646 135.174C246.678 137.184 253.721 143.615 257.983 152.688C262.322 161.993 262.965 172.163 260.024 180.883Z" fill="#FFCC00"/>
</svg>
