<svg width="79" height="161" viewBox="0 0 79 161" fill="none" xmlns="http://www.w3.org/2000/svg">
<path d="M-32.8136 7.79992C-30.0136 8.59992 -26.4136 11.7999 -27.8136 20.0999C-29.2136 28.3999 -30.7136 43.7999 -30.9136 49.3999C-31.1136 54.9999 -32.2136 62.2999 -29.7136 62.7999C-27.2136 63.2999 -22.9136 56.8999 -20.7136 51.2999C-18.5136 45.7999 -12.6136 32.9999 -9.31358 27.2999C-6.01357 21.5999 0.186424 6.99992 1.88642 4.19992C3.68642 1.39992 7.28642 -8.18372e-05 11.0864 1.29992C14.9864 2.69992 16.9864 6.39992 13.9864 14.1999C10.9864 21.9999 5.98642 31.4999 3.88642 35.8999C1.88642 40.2999 -7.01358 63.9999 -7.71358 67.5999C-8.41357 71.1999 -4.11358 72.3999 -1.31358 68.6999C1.48643 64.9999 11.5864 53.8999 16.1864 49.2999C20.7864 44.6999 28.7864 36.3999 31.6864 33.1999C34.5864 30.0999 40.9864 22.4999 42.7864 20.5999C44.5864 18.6999 48.4864 14.9999 53.3864 19.1999C58.3864 23.3999 56.1864 29.1999 53.0864 32.8999C49.9864 36.5999 44.8864 42.6999 42.1864 46.4999C39.5864 50.3999 31.2864 60.5999 27.1864 65.0999C23.1864 69.5999 10.2864 81.0999 13.4864 84.2999C16.6864 87.4999 34.3864 74.7999 38.4864 72.3999C42.5864 69.9999 50.7864 64.1999 54.4864 62.2999C58.1864 60.3999 71.0864 49.2999 76.2864 56.9999C81.4864 64.6999 73.6864 69.5999 69.1864 72.6999C64.6864 75.7999 47.9864 87.3999 41.5864 92.1999C35.2864 96.8999 13.6864 110.8 10.3864 119.5C7.18642 128.1 10.1864 127 16.7864 125.4C23.3864 123.8 32.6864 119.6 40.7864 120.5C45.5864 121 53.9864 123.5 54.9864 129.3C55.9864 135.1 51.1864 133.5 46.0864 135.3C40.8864 137.1 27.3864 143.5 21.7864 144.6C16.1864 145.7 10.5864 150.9 6.78642 152.4C-0.51358 155.4 -11.7136 156.5 -17.3136 157.9C-22.9136 159.3 -33.7136 161.4 -37.2136 160.6C-37.3136 160.6 -41.1136 160.6 -46.0136 158.6C-50.9136 156.6 -58.0136 147.1 -62.7136 143.4C-67.1136 139.8 -75.3136 138.1 -77.5136 130.2C-78.7136 126 -77.4136 121.1 -76.6136 118.8C-74.9136 113.9 -70.0136 100.6 -67.1136 95.5999C-64.2136 90.5999 -57.9136 80.2999 -56.6136 76.1999C-55.3136 72.0999 -49.6136 64.3999 -49.6136 64.3999C-49.6136 64.3999 -46.8136 47.9999 -46.2136 42.1999C-45.6136 36.3999 -43.8136 20.9999 -41.8136 15.0999C-39.5136 9.09992 -35.6136 7.09992 -32.8136 7.79992Z" fill="#6DCEAE"/>
</svg>
